<svg width="18" height="18" xmlns="http://www.w3.org/2000/svg" xmlns:xlink="http://www.w3.org/1999/xlink" xml:space="preserve" overflow="hidden"><g transform="translate(-1173 -677)"><path d="M1186.94 691.498 1186.25 691.26 1186.02 691.166C1186.35 690.865 1186.69 690.546 1187.03 690.209 1187.8 689.438 1188.53 688.617 1189.2 687.753 1189.36 687.543 1189.34 687.246 1189.16 687.059L1186.94 684.841C1186.75 684.653 1186.46 684.633 1186.25 684.794 1185.66 685.247 1185.03 685.785 1184.39 686.388L1176.41 678.013C1176.26 677.873 1176.03 677.873 1175.88 678.013L1174.82 679.069C1174.68 679.217 1174.68 679.45 1174.82 679.597L1183.18 687.596C1182.6 688.207 1182.06 688.846 1181.55 689.513 1181.39 689.723 1181.41 690.018 1181.59 690.205 1181.94 690.555 1182.52 691.135 1183.04 691.65L1180.59 691.058 1179.41 691.707 1177.4 692.255 1179.48 692.33 1180.85 691.651 1183.54 692.154 1183.73 692.338 1183.92 692.678 1182.42 692.689 1181.22 694.093 1182.48 693.321 1183.79 693.309 1184.06 694.194 1184.25 693.261 1184.84 692.177C1185.02 692.035 1185.2 691.885 1185.38 691.729L1186.2 691.729 1186.43 692.264 1186.07 692.788 1186.36 693.332 1186.77 692.645 1187.04 691.97 1188.26 691.681 1189.26 692.27 1188.53 691.314Z" stroke="#000000" stroke-width="0.1875" fill="#FFFFFF"/></g></svg>