<svg width="19" height="19" xmlns="http://www.w3.org/2000/svg" xmlns:xlink="http://www.w3.org/1999/xlink" xml:space="preserve" overflow="hidden"><g transform="translate(-1173 -640)"><path d="M1183.89 646.135 1182.94 646.135 1182.5 645.591 1182.5 643.958 1184.48 643.958 1184.48 642.771 1182.94 642.771 1182.3 641.979 1180.72 641.979 1180.09 642.771 1178.54 642.771 1178.54 643.958 1180.52 643.958 1180.52 645.591 1180.09 646.135 1176.17 646.135 1176.17 649.302 1183.89 649.302C1184.87 649.303 1185.67 650.1 1185.67 651.083L1185.67 651.479 1188.83 651.479 1188.83 651.083C1188.83 648.352 1186.62 646.138 1183.89 646.135Z" fill="#408D67"/><path d="M1185.94 655.652C1185.93 656.398 1186.52 657.009 1187.27 657.018 1188.01 657.028 1188.63 656.43 1188.64 655.685 1188.64 655.674 1188.64 655.663 1188.64 655.652 1188.64 654.783 1187.29 652.865 1187.29 652.865 1187.29 652.865 1185.94 654.789 1185.94 655.652Z" fill="#408D67"/></g></svg>