<svg width="19" height="19" xmlns="http://www.w3.org/2000/svg" xmlns:xlink="http://www.w3.org/1999/xlink" xml:space="preserve" overflow="hidden"><g transform="translate(-1174 -621)"><path d="M1175.39 633.073 1190.18 633.073 1188.42 631.315C1188.2 631.076 1188.21 630.7 1188.45 630.476 1188.68 630.264 1189.04 630.264 1189.26 630.476L1192.03 633.247C1192.27 633.479 1192.27 633.854 1192.03 634.086L1189.26 636.857C1189.03 637.089 1188.66 637.089 1188.42 636.857 1188.19 636.625 1188.19 636.25 1188.42 636.018L1190.18 634.26 1175.39 634.26C1175.06 634.26 1174.79 633.995 1174.79 633.667 1174.79 633.339 1175.06 633.073 1175.39 633.073Z" stroke="#64CBE8" stroke-width="0.197917" fill="#408D67"/><path d="M1191.61 626.74 1176.82 626.74 1178.58 624.982C1178.82 624.759 1178.83 624.383 1178.61 624.143 1178.38 623.903 1178.01 623.89 1177.77 624.113 1177.76 624.123 1177.75 624.133 1177.74 624.143L1174.97 626.914C1174.73 627.146 1174.73 627.521 1174.97 627.753L1177.74 630.524C1177.97 630.755 1178.34 630.755 1178.58 630.524 1178.81 630.292 1178.81 629.916 1178.58 629.685L1176.82 627.927 1191.61 627.927C1191.94 627.927 1192.21 627.661 1192.21 627.333 1192.21 627.005 1191.94 626.74 1191.61 626.74Z" stroke="#64CBE8" stroke-width="0.197917" fill="#408D67"/></g></svg>